<svg id="Capa_1" enable-background="new 0 0 512 512" height="512" viewBox="0 0 512 512" width="512" xmlns="http://www.w3.org/2000/svg"><g><g><g><g><path d="m298.082 185.896 91.097-91.118c12.453-12.456 12.453-32.65 0-45.106-12.453-12.456-32.643-12.456-45.096 0l-126.747 126.776-29.185-29.192c-19.976-19.981-49.904-23.941-73.825-11.881-9.261 4.669-11.238 17.043-3.904 24.378l57.501 57.513-1.016 53.848-85.624 85.643 134.735 134.765 88.603-88.623 35.66-.673c7.909-.149 15.453-3.358 21.046-8.953l72.043-72.059z" fill="#fecdbf"/><path d="m343.178 231.002-193.811 193.855 66.651 66.666 88.603-88.623 35.66-.673c7.909-.149 15.453-3.358 21.046-8.953l72.043-72.059z" fill="#febeac"/></g><g><path d="m441.013 313.57-29.09 29.097c-12.453 12.456-32.643 12.456-45.096 0-12.453-12.456-12.453-32.65 0-45.106l29.09-29.096c12.453-12.456 32.643-12.456 45.096 0 12.453 12.455 12.453 32.65 0 45.105z" fill="#fecdbf"/><path d="m395.917 268.464-29.09 29.096c-12.453 12.456-32.643 12.456-45.096 0-12.453-12.456-12.453-32.65 0-45.106l29.09-29.097c12.453-12.456 32.643-12.456 45.096 0 12.453 12.457 12.453 32.652 0 45.107z" fill="#fecdbf"/><path d="m350.821 223.358-29.09 29.097c-12.453 12.456-32.643 12.456-45.096 0-12.453-12.456-12.453-32.65 0-45.106l29.09-29.096c12.453-12.456 32.643-12.456 45.096 0 12.453 12.455 12.453 32.65 0 45.105z" fill="#feded0"/></g></g><g><path d="m137.287 436.939-70.253-70.268c-7.182-7.184-7.182-18.832 0-26.016l19.683-19.687c7.182-7.184 18.827-7.184 26.01 0l70.253 70.268-2.965 34.973z" fill="#414c7f"/><path d="m252.565 460.838-69.585-69.601-45.692 45.702 69.585 69.601c7.279 7.28 19.08 7.28 26.358 0l19.334-19.338c7.279-7.281 7.279-19.084 0-26.364z" fill="#293565"/></g></g><g fill="#9ceefe"><path d="m120.264 90.821-27.167-27.174c-5.858-5.859-5.858-15.359 0-21.218s15.355-5.859 21.213 0l27.167 27.173c5.858 5.859 5.858 15.359 0 21.218-5.858 5.86-15.355 5.86-21.213.001z"/><path d="m232.929 90.821c-5.858-5.859-5.858-15.359 0-21.218l27.167-27.173c5.858-5.859 15.355-5.859 21.213 0s5.858 15.359 0 21.218l-27.167 27.173c-5.857 5.859-15.355 5.859-21.213 0z"/><path d="m176.597 64.041c-2.714-2.715-4.394-6.466-4.394-10.609v-38.429c0-8.286 6.716-15.003 15-15.003 8.284-.001 15 6.717 15 15.003v38.429c0 8.286-6.716 15.003-15 15.004-4.142-.001-7.892-1.68-10.606-4.395z"/></g></g></svg>