<svg id="Capa_1" enable-background="new 0 0 512 512" height="512" viewBox="0 0 512 512" width="512" xmlns="http://www.w3.org/2000/svg"><g><path d="m274.938 288-18.938-288-64 64v22.37h32v201.63z" fill="#ff6378"/><path d="m320 64v22.37h-32v201.63h-32v-288z" fill="#ff3d7d"/><path d="m274.938 288-18.938-84.66c-19.91 22.57-32 52.21-32 84.66v128h50.938z" fill="#fd3"/><path d="m512 192-64 64h-22.37v-32h-73.63c-35.35 0-64 28.65-64 64v128h-32v-212.66c22.997-26.196 58.101-43.484 96-43.34h73.63v-32h22.37z" fill="#ffb73f"/><path d="m256 512 18.938-96-18.938-84.66c-23.908-26.899-57.986-43.259-96-43.34h-73.63v-32h-22.37l-64 64 64 64h22.37v-32h73.63c35.35 0 64 28.65 64 64v96z" fill="#4ff6d8"/><path d="m288 416v96h-32v-180.66c19.91 22.57 32 52.21 32 84.66z" fill="#5ecbf1"/></g></svg>